<?xml version="1.0" encoding="UTF-8"?><svg id="a" xmlns="http://www.w3.org/2000/svg" viewBox="0 0 39.39 39.76"><defs><style>.b{fill:#393232;}</style></defs><path class="b" d="M16.83,21.35c-2.53-1.43-5.04,.54-10.88,6.76-1.81,1.85-2.6,3.74-2.36,5.6,.23,1.83,1.5,3.53,3.56,4.78,1.38,.84,2.77,1.27,4.04,1.27,.66,0,1.29-.11,1.88-.34,1.15-.45,2.7-1.59,3.54-4.5,2.39-8.9,2.94-11.92,.23-13.58Z"/><path class="b" d="M10.95,18.46c2.54,0,3.83-.63,4.28-2.35,.76-2.53-1.44-3.94-7.9-7.31-1.53-.89-2.92-1.12-4.12-.68-1.27,.47-2.26,1.65-2.88,3.43h0c-.54,1.69-.41,3.29,.34,4.42,.49,.74,1.51,1.65,3.55,1.82,2.86,.41,5.07,.68,6.73,.68Z"/><path class="b" d="M39.05,11.47c-.53-1.71-1.52-2.94-2.79-3.44-1.21-.49-2.6-.29-4.08,.57-6.93,3.66-8.62,4.87-8.03,7.51,.46,1.6,1.64,2.24,4.25,2.24,1.61,0,3.77-.24,6.63-.65,1.74-.14,2.98-.75,3.71-1.82,.75-1.11,.86-2.68,.31-4.4Z"/><path class="b" d="M22.52,21.37c-2.32,1.51-1.99,4.36,.36,13.36,.68,2.43,1.88,4,3.57,4.66,.57,.22,1.19,.33,1.84,.33,1.3,0,2.72-.45,4.14-1.32,1.97-1.17,3.18-2.81,3.42-4.61,.24-1.84-.57-3.77-2.32-5.56-5.84-6.42-8.37-8.42-11.02-6.86Z"/><path class="b" d="M23.67,4.99c.32-1.53,.13-2.75-.58-3.63-.72-.89-1.93-1.36-3.5-1.36-1.47,0-2.68,.49-3.42,1.38-.5,.6-1.01,1.7-.67,3.47,.88,6.46,1.7,8.04,4.18,8.04,2.21,0,3.04-1.63,3.98-7.9Z"/></svg>