<?xml version="1.0" encoding="UTF-8"?><svg id="a" xmlns="http://www.w3.org/2000/svg" viewBox="0 0 114.95 22.53"><defs><style>.b{fill:#393232;}</style></defs><g><path class="b" d="M0,11.49C0,5.04,4.86,.3,10.83,.3c2.61,0,4.89,.9,6.33,1.98,.06-.69,.42-1.17,.9-1.17,1.2,0,1.92,2.91,1.92,5.19,0,1.47-.42,2.37-1.17,2.37-.66,0-1.08-.93-1.5-2.13-.84-2.58-3.6-4.14-6.48-4.14-4.26,0-6.96,3.42-6.96,8.07,0,5.01,3.15,9.75,8.07,9.75,3.18,0,5.37-1.89,5.37-4.17,0-.66-.24-1.2-.87-1.35-1.98-.06-2.76-.3-2.76-.96,0-.87,1.68-1.14,4.71-1.14s4.71,.3,4.71,1.14c0,.63-.72,.87-2.07,.93-.39,.24-.51,1.38-.72,2.04-1.08,3.57-4.62,5.82-9.18,5.82C4.71,22.53,0,17.85,0,11.49Z"/><path class="b" d="M29.88,13.38c1.17,0,2.31,.21,3.36,.48v-1.71c0-1.38-.06-3.72-2.31-3.72-1.17,0-2.13,.81-3.12,2.01-.51,.63-1.05,1.23-1.98,1.23-.75,0-1.29-.48-1.29-1.17,0-1.59,3.93-3.72,7.17-3.72,3.06,0,4.83,1.65,4.83,4.71v5.64c0,1.71,.09,2.82,1.89,3.21,.18,.03,.24,.12,.24,.3,0,.69-.87,1.62-2.43,1.62-1.35,0-2.43-.72-2.91-2.49-1.11,1.8-2.91,2.73-4.98,2.73-2.91,0-4.86-1.8-4.86-4.32,0-2.85,2.58-4.8,6.39-4.8Zm-.27,7.02c1.95,0,3.69-1.65,3.69-3.87v-.9c-.69-.33-1.77-.63-2.85-.63-2.34,0-3.6,1.11-3.6,2.73,0,1.53,1.05,2.67,2.76,2.67Z"/><path class="b" d="M39.93,21.12c0-.6,.6-.78,1.74-.84,.33-.15,.39-1.05,.39-3.15v-4.17c0-1.35-.06-3.09-.45-3.3-1.53-.09-1.92-.42-1.92-.84,0-.3,.18-.54,.6-.78,1.05-.54,3.24-1.02,4.05-1.02,.87,0,1.05,.57,1.05,1.65v1.98c.99-2.49,2.97-3.81,4.56-3.81,1.17,0,2.28,.75,2.28,2.22,0,1.35-.75,2.16-1.77,2.16-.69,0-1.11-.33-1.47-.72-.27-.27-.51-.63-1.02-.63-.99,0-2.61,1.56-2.61,4.32v2.94c0,1.98,.09,2.97,.42,3.12,1.68,.09,2.31,.27,2.31,.87,0,.84-1.56,1.11-4.38,1.11-2.4,0-3.78-.3-3.78-1.11Z"/><path class="b" d="M52.98,14.88c0-4.86,2.91-8.1,7.14-8.1,1.98,0,3.54,.75,4.56,1.89v-2.67c0-1.35-.18-3.09-.66-3.3-1.62-.06-2.13-.42-2.13-.84,0-.36,.21-.6,.69-.81,1.17-.57,3.54-1.05,4.38-1.05s1.05,.57,1.05,1.65-.03,2.67-.03,4.83v9.9c0,1.47,.06,3.12,.42,3.3,1.53,.09,1.95,.42,1.95,.84,0,.3-.18,.54-.63,.78-1.11,.54-3.18,1.02-3.96,1.02-.87,0-1.05-.57-1.05-1.65,0-.42,.03-1.08,.03-1.86-.87,2.16-2.97,3.69-5.55,3.69-3.57,0-6.21-3.12-6.21-7.62Zm7.47,5.4c2.19,0,4.32-1.83,4.26-6.24-.03-4.02-1.8-5.64-4.02-5.64-2.73,0-4.2,2.4-4.2,6.03s1.68,5.85,3.96,5.85Z"/><path class="b" d="M71.49,14.97c0-4.86,3.42-8.19,7.59-8.19,3.78,0,6.15,2.64,6.15,5.25,0,1.32-.66,2.25-1.83,2.25h-8.88c.18,3.21,2.04,5.31,5.04,5.31,2.1,0,3.42-1.05,4.29-1.92,.3-.27,.54-.51,.84-.51,.39,0,.63,.27,.63,.78,0,.54-.33,1.32-.99,2.04-1.08,1.29-3.03,2.55-5.76,2.55-4.23,0-7.08-3.09-7.08-7.56Zm9.33-2.4c.96,0,1.47-.33,1.47-1.17,0-1.59-1.29-3.03-3.39-3.03-2.31,0-3.93,1.68-4.29,4.26l6.21-.06Z"/><path class="b" d="M97.35,21.12c0-.6,.6-.78,1.89-.84,.36-.15,.42-1.53,.42-3.15v-3.39c0-3.18-.93-4.56-3.12-4.56-1.95,0-4.05,1.53-4.05,5.49v2.46c0,2.01,.03,3,.36,3.15,1.35,.09,1.92,.24,1.92,.84,0,.84-1.5,1.11-3.96,1.11s-3.78-.3-3.78-1.11c0-.6,.63-.78,1.77-.84,.33-.15,.39-1.05,.39-3.15v-4.2c0-1.35-.06-3.06-.45-3.27-1.53-.09-1.92-.42-1.92-.84,0-.3,.15-.54,.6-.78,1.11-.57,3.24-1.02,4.05-1.02,.87,0,1.05,.54,1.05,1.65v1.77c.99-2.31,3.06-3.63,5.52-3.63,2.7,0,4.92,1.59,4.92,5.67v4.65c0,2.28,0,3,.33,3.15,1.2,.09,1.8,.24,1.8,.84,0,.84-1.5,1.11-3.81,1.11-2.55,0-3.93-.3-3.93-1.11Z"/></g><g><path class="b" d="M109.93,18.26c-.56-.32-1.12,.12-2.42,1.51-.4,.41-.58,.83-.53,1.25,.05,.41,.33,.79,.79,1.06,.31,.19,.62,.28,.9,.28,.15,0,.29-.03,.42-.08,.26-.1,.6-.35,.79-1,.53-1.98,.65-2.65,.05-3.02Z"/><path class="b" d="M108.62,17.61c.57,0,.85-.14,.95-.52,.17-.56-.32-.88-1.76-1.63-.34-.2-.65-.25-.92-.15-.28,.1-.5,.37-.64,.76h0c-.12,.38-.09,.73,.08,.98,.11,.16,.34,.37,.79,.4,.64,.09,1.13,.15,1.5,.15Z"/><path class="b" d="M114.87,16.06c-.12-.38-.34-.65-.62-.77-.27-.11-.58-.06-.91,.13-1.54,.82-1.92,1.08-1.79,1.67,.1,.36,.36,.5,.95,.5,.36,0,.84-.05,1.48-.14,.39-.03,.66-.17,.83-.41,.17-.25,.19-.6,.07-.98Z"/><path class="b" d="M111.19,18.26c-.52,.34-.44,.97,.08,2.98,.15,.54,.42,.89,.79,1.04,.13,.05,.27,.07,.41,.07,.29,0,.61-.1,.92-.29,.44-.26,.71-.62,.76-1.03,.05-.41-.13-.84-.52-1.24-1.3-1.43-1.86-1.87-2.45-1.53Z"/><path class="b" d="M111.45,14.61c.07-.34,.03-.61-.13-.81-.16-.2-.43-.3-.78-.3-.33,0-.6,.11-.76,.31-.11,.13-.23,.38-.15,.77,.2,1.44,.38,1.79,.93,1.79,.49,0,.68-.36,.89-1.76Z"/></g></svg>